<?xml version="1.0" encoding="iso-8859-1"?>
<!-- Generator: Adobe Illustrator 19.0.0, SVG Export Plug-In . SVG Version: 6.00 Build 0)  -->
<svg version="1.1" id="Layer_1" xmlns="http://www.w3.org/2000/svg" xmlns:xlink="http://www.w3.org/1999/xlink" x="0px" y="0px"
	 viewBox="0 0 509.287 509.287" style="enable-background:new 0 0 509.287 509.287;" xml:space="preserve">

<circle style="fill:#F0582F;" cx="254.644" cy="254.644" r="226.501"/>
<g>
	<path style="fill:#611A21;" d="M263.121,418.755c0,4.747-3.73,8.477-8.477,8.477c-4.747,0-8.477-3.73-8.477-8.477
		c0-4.747,3.73-14.241,8.477-14.241C259.391,404.514,263.121,414.008,263.121,418.755z"/>
	<path style="fill:#611A21;" d="M236.334,372.302c-0.678,4.069-4.747,6.781-8.816,6.103c-4.069-0.678-6.781-4.747-6.103-8.816
		c0.678-4.069,5.764-11.868,9.833-11.189C235.656,359.417,237.351,368.233,236.334,372.302z"/>
	<path style="fill:#611A21;" d="M185.134,356.705c-1.356,4.069-5.764,5.764-9.494,4.408c-4.069-1.356-5.764-5.764-4.408-9.494
		c1.356-4.069,7.46-10.85,11.528-9.494C186.49,343.481,186.829,352.636,185.134,356.705z"/>
	<path style="fill:#611A21;" d="M142.75,338.395c-2.713,3.052-7.121,3.391-10.511,1.017c-3.391-2.713-3.73-7.46-1.017-10.511
		c2.713-3.052,10.511-7.46,13.902-4.747C148.175,326.527,145.462,335.343,142.75,338.395z"/>
	<path style="fill:#611A21;" d="M109.181,312.286c-3.391,2.373-8.138,1.356-10.172-2.374c-2.374-3.391-1.356-8.138,2.034-10.172
		c3.391-2.374,12.207-4.069,14.58-0.339C117.658,302.453,112.572,309.913,109.181,312.286z"/>
	<path style="fill:#611A21;" d="M272.954,372.302c0.678,4.069,4.747,6.781,8.816,6.103c4.069-0.678,6.781-4.747,6.103-8.816
		c-0.678-4.069-5.764-11.868-9.833-11.189C273.632,359.417,271.936,368.233,272.954,372.302z"/>
	<path style="fill:#611A21;" d="M324.154,356.705c1.356,4.069,5.764,5.764,9.494,4.408c4.069-1.356,5.764-5.764,4.408-9.494
		c-1.356-4.069-7.46-10.85-11.528-9.494C322.797,343.481,322.458,352.636,324.154,356.705z"/>
	<path style="fill:#611A21;" d="M366.538,338.395c2.713,3.052,7.121,3.391,10.511,1.017c3.391-2.713,3.73-7.46,1.017-10.511
		c-2.713-3.052-10.511-7.46-13.902-4.747C361.113,326.527,363.825,335.343,366.538,338.395z"/>
	<path style="fill:#611A21;" d="M400.106,312.286c3.391,2.373,8.138,1.356,10.172-2.374c2.374-3.391,1.356-8.138-2.034-10.172
		c-3.391-2.374-12.207-4.069-14.58-0.339C391.629,302.453,396.715,309.913,400.106,312.286z"/>
	<path style="fill:#611A21;" d="M201.07,412.652c-1.017,4.408-5.425,7.121-10.172,6.103c-4.408-1.017-7.121-5.425-6.103-10.172
		c1.017-4.408,6.781-12.885,11.528-11.868C200.731,398.072,202.087,407.905,201.07,412.652z"/>
	<path style="fill:#611A21;" d="M144.106,392.646c-2.713,3.73-7.799,4.747-11.528,2.034c-3.73-2.713-4.747-7.799-2.034-11.529
		c2.713-3.73,11.189-9.494,14.919-6.781C148.853,379.083,146.819,388.917,144.106,392.646z"/>
	<path style="fill:#611A21;" d="M96.636,359.078c-3.391,3.052-8.816,3.052-11.868-0.339c-3.052-3.391-3.052-8.816,0.339-12.207
		c3.391-3.052,12.885-7.121,15.936-3.73C104.434,346.532,100.026,356.026,96.636,359.078z"/>
	<path style="fill:#611A21;" d="M61.033,308.217c-4.408,1.695-9.155-0.678-10.511-5.086c-1.356-4.408,1.017-9.155,5.764-10.511
		c4.408-1.695,14.919-1.356,16.275,3.052C73.918,300.079,65.441,306.522,61.033,308.217z"/>
	<path style="fill:#611A21;" d="M308.217,412.652c1.017,4.408,5.425,7.121,10.172,6.103c4.408-1.017,7.121-5.425,6.103-10.172
		c-1.017-4.408-6.781-12.885-11.529-11.868C308.217,397.732,307.2,407.905,308.217,412.652z"/>
	<path style="fill:#611A21;" d="M365.181,392.646c2.713,3.73,7.799,4.747,11.528,2.034c3.73-2.713,4.747-7.799,2.034-11.529
		s-11.189-9.494-14.919-6.781C360.434,379.083,362.469,388.917,365.181,392.646z"/>
	<path style="fill:#611A21;" d="M412.652,359.078c3.391,3.052,8.816,3.052,11.868-0.339c3.052-3.391,3.052-8.816-0.339-12.207
		c-3.391-3.052-12.885-7.121-15.936-3.73C404.853,346.532,409.261,356.026,412.652,359.078z"/>
	<path style="fill:#611A21;" d="M448.254,308.217c4.408,1.695,9.155-0.678,10.511-5.086c1.356-4.408-1.017-9.155-5.764-10.511
		c-4.408-1.695-14.919-1.356-16.276,3.052C435.709,299.74,443.846,306.522,448.254,308.217z"/>
	<path style="fill:#611A21;" d="M246.167,90.532c0-4.747,3.73-8.477,8.477-8.477c4.747,0,8.477,3.73,8.477,8.477
		s-3.73,14.241-8.477,14.241C249.897,104.773,246.167,95.279,246.167,90.532z"/>
	<path style="fill:#611A21;" d="M272.954,136.985c0.678-4.069,4.747-6.781,8.816-6.103s6.781,4.747,6.103,8.816
		c-0.678,4.069-5.764,11.868-9.833,11.189C273.632,149.87,271.936,141.054,272.954,136.985z"/>
	<path style="fill:#611A21;" d="M324.154,152.583c1.356-4.069,5.764-5.764,9.494-4.408c4.069,1.356,5.764,5.764,4.408,9.494
		c-1.356,4.069-7.46,10.85-11.528,9.494C322.797,165.807,322.458,156.652,324.154,152.583z"/>
	<path style="fill:#611A21;" d="M366.538,170.893c2.713-3.052,7.121-3.391,10.511-1.017c3.391,2.713,3.73,7.46,1.017,10.511
		c-2.713,3.052-10.511,7.46-13.902,4.747C361.113,182.76,363.825,173.944,366.538,170.893z"/>
	<path style="fill:#611A21;" d="M400.106,197.001c3.391-2.374,8.138-1.356,10.172,2.374c2.374,3.391,1.356,8.138-2.034,10.172
		c-3.391,2.374-12.207,4.069-14.58,0.339C391.629,206.834,396.715,199.375,400.106,197.001z"/>
	<path style="fill:#611A21;" d="M236.334,136.985c-0.678-4.069-4.747-6.781-8.816-6.103c-4.069,0.678-6.781,4.747-6.103,8.816
		c0.678,4.069,5.764,11.868,9.833,11.189C235.656,149.87,237.351,141.054,236.334,136.985z"/>
	<path style="fill:#611A21;" d="M185.134,152.583c-1.356-4.069-5.764-5.764-9.494-4.408c-4.069,1.356-5.764,5.764-4.408,9.494
		c1.356,4.069,7.46,10.85,11.528,9.494C186.49,165.807,186.829,156.652,185.134,152.583z"/>
	<path style="fill:#611A21;" d="M142.75,170.893c-2.713-3.052-7.121-3.391-10.511-1.017c-3.391,2.713-3.73,7.46-1.017,10.511
		c2.713,3.052,10.511,7.46,13.902,4.747C148.175,182.76,145.462,173.944,142.75,170.893z"/>
	<path style="fill:#611A21;" d="M109.181,197.001c-3.391-2.374-8.138-1.356-10.172,2.374c-2.374,3.391-1.356,8.138,2.034,10.172
		c3.391,2.374,12.207,4.069,14.58,0.339C117.658,206.834,112.572,199.375,109.181,197.001z"/>
	<path style="fill:#611A21;" d="M308.217,96.636c1.017-4.408,5.425-7.121,10.172-6.103c4.408,1.017,7.121,5.425,6.103,10.172
		c-1.017,4.408-6.781,12.885-11.529,11.868C308.556,111.216,307.2,101.383,308.217,96.636z"/>
	<path style="fill:#611A21;" d="M365.181,116.641c2.713-3.73,7.799-4.747,11.528-2.034c3.73,2.713,4.747,7.799,2.034,11.528
		c-2.713,3.73-11.189,9.494-14.919,6.781C360.434,130.204,362.469,120.371,365.181,116.641z"/>
	<path style="fill:#611A21;" d="M412.652,150.209c3.391-3.052,8.816-3.052,11.868,0.339s3.052,8.816-0.339,12.207
		c-3.391,3.052-12.885,7.121-15.936,3.73C404.853,162.755,409.261,153.261,412.652,150.209z"/>
	<path style="fill:#611A21;" d="M448.254,201.07c4.408-1.695,9.155,0.678,10.511,5.086c1.356,4.408-1.017,9.155-5.764,10.511
		c-4.408,1.695-14.919,1.356-16.276-3.052C435.709,209.547,443.846,202.766,448.254,201.07z"/>
	<path style="fill:#611A21;" d="M201.07,96.636c-1.017-4.408-5.425-7.121-10.172-6.103c-4.408,1.017-7.121,5.425-6.103,10.172
		c1.017,4.408,6.781,12.885,11.528,11.868C200.731,111.216,202.087,101.383,201.07,96.636z"/>
	<path style="fill:#611A21;" d="M144.106,116.641c-2.713-3.73-7.799-4.747-11.528-2.034c-3.73,2.713-4.747,7.799-2.034,11.528
		c2.713,3.73,11.189,9.494,14.919,6.781C148.853,130.204,146.819,120.371,144.106,116.641z"/>
	<path style="fill:#611A21;" d="M96.636,150.209c-3.391-3.052-8.816-3.052-11.868,0.339c-3.052,3.391-3.052,8.816,0.339,12.207
		c3.391,3.052,12.885,7.121,15.936,3.73C104.434,162.755,100.026,153.261,96.636,150.209z"/>
	<path style="fill:#611A21;" d="M61.033,201.07c-4.408-1.695-9.155,0.678-10.511,5.086c-1.356,4.408,1.017,9.155,5.764,10.511
		c4.408,1.695,14.919,1.356,16.275-3.052C73.579,209.547,65.441,202.766,61.033,201.07z"/>
</g>
<g>
</g>
<g>
</g>
<g>
</g>
<g>
</g>
<g>
</g>
<g>
</g>
<g>
</g>
<g>
</g>
<g>
</g>
<g>
</g>
<g>
</g>
<g>
</g>
<g>
</g>
<g>
</g>
<g>
</g>
</svg>
